# xmcd
#
# Track frame offsets:
#	150
#	20530
#	43660
#	65935
#	86730
#	107965
#	126840
#	145210
#	166927
#	187102
#	212312
#	233060
#	255532
#	275547
#	296482
#	310562
#	328365
#
# Disc length: 4617 seconds
#
# Revision: 5
# Processed by: cddbd v1.5.2PL0 Copyright (c) Steve Scherf et al.
# Submitted via: EasyCDDAExtractor 15.3.0.1
#
DISCID=02120711
DTITLE=Ricky Martin - La Historia
DYEAR=2001
DGENRE=Latin
TTITLE0=Maria (Spanglish Radio Edit)
TTITLE1=Vuelve
TTITLE2=Bella (She's All I Ever Had)
TTITLE3=La Bomba
TTITLE4=A Medio Vivir
TTITLE5=Perdido Sin Ti
TTITLE6=Livin' La Vida Loca (Spanish Version)
TTITLE7=Volveras
TTITLE8=La Copa De La Vida (La Cancion Oficial De La Copa Mundial, Francia '98
TTITLE8=) (Spanish)
TTITLE9=Fuego De Noche, Nieve De Dia
TTITLE10=She Bangs (Spanish Version)
TTITLE11=Bombom De Azucar
TTITLE12=Fuego Contra Fuego
TTITLE13=Te Extraño, Te Olvido, Te Amo
TTITLE14=Por Arriba, Por Abajo
TTITLE15=El Amor De Mi Vida
TTITLE16=Solo Quiero Amarte (Nobody Wants To Be Lonely) (Radio Edit)
EXTD=
EXTT0=
EXTT1=
EXTT2=
EXTT3=
EXTT4=
EXTT5=
EXTT6=
EXTT7=
EXTT8=
EXTT9=
EXTT10=
EXTT11=
EXTT12=
EXTT13=
EXTT14=
EXTT15=
EXTT16=
PLAYORDER=
